<?xml version="1.0" encoding="UTF-8"?>
<svg width="18px" height="18px" viewBox="0 0 18 18" version="1.1" xmlns="http://www.w3.org/2000/svg" xmlns:xlink="http://www.w3.org/1999/xlink">
    <title>编组 2</title>
    <g id="页面-2" stroke="none" stroke-width="1" fill="none" fill-rule="evenodd">
        <g id="Assets" transform="translate(-607.000000, -314.000000)">
            <g id="编组-2" transform="translate(616.000000, 323.000000) scale(1, -1) translate(-616.000000, -323.000000) translate(607.000000, 314.000000)">
                <circle id="椭圆形" fill="#6098FF" cx="9" cy="9" r="9"></circle>
                <g id="xiala" transform="translate(8.678571, 8.750000) rotate(-180.000000) translate(-8.678571, -8.750000) translate(4.178571, 6.250000)" fill="#FFFFFF" fill-rule="nonzero">
                    <path d="M4.17857144,4.53744097 C4.05789067,4.53744097 3.87686952,4.43939393 3.81652914,4.37878788 L0.135765863,0.803030307 C-0.0452552876,0.62121212 -0.0452552876,0.318181828 0.135765863,0.136363641 C0.316787013,-0.0454545469 0.61848891,-0.0454545469 0.79951006,0.136363641 L4.17857144,3.40909091 L7.5576328,0.136363641 C7.73865395,-0.0454545469 8.04035584,-0.0454545469 8.22137699,0.136363641 C8.40239814,0.318181828 8.40239814,0.62121212 8.22137699,0.803030307 L4.54061372,4.37878788 C4.46891567,4.46212769 4.2992522,4.53744097 4.17857144,4.53744097 Z" id="路径"></path>
                </g>
            </g>
        </g>
    </g>
</svg>