<?xml version="1.0" encoding="UTF-8"?>
<svg width="11px" height="13px" viewBox="0 0 11 13" version="1.1" xmlns="http://www.w3.org/2000/svg" xmlns:xlink="http://www.w3.org/1999/xlink">
    <title>chongzhi</title>
    <g id="页面-1" stroke="none" stroke-width="1" fill="none" fill-rule="evenodd">
        <g id="Inter-chain" transform="translate(-790.000000, -120.000000)" fill="#FFFFFF" fill-rule="nonzero">
            <g id="编组-5" transform="translate(782.000000, 113.000000)">
                <g id="chongzhi" transform="translate(8.000000, 7.000000)">
                    <path d="M9.77174076,5.36405797 C9.50074644,5.09713802 9.06568299,5.09713802 8.79468867,5.36405797 L5.94225349,8.21970626 L5.94225349,0.99021691 C5.94179112,0.743209667 5.81003122,0.515077398 5.59630903,0.391240332 C5.38220298,0.268134255 5.11879393,0.268134255 4.90468788,0.391240332 C4.6909657,0.515077402 4.55920581,0.743209671 4.55874344,0.99021691 L4.55874344,8.21970626 L1.72103499,5.36539676 L1.71621532,5.36057711 C1.44435865,5.10436363 1.01783869,5.11149011 0.754693229,5.37664264 C0.489464519,5.63971479 0.482219238,6.06623612 0.738359936,6.33816472 L4.76384671,10.3778427 C5.03484103,10.6447627 5.4699045,10.6447627 5.74089882,10.3778427 L9.77254404,6.34271662 C10.0420513,6.07203096 10.041692,5.63430085 9.77174076,5.36405797 L9.77174076,5.36405797 Z M7.86074576,10.7138801 L2.66622377,10.7138801 C2.23737427,10.7138801 1.88972306,11.0615313 1.88972306,11.4903808 C1.88972306,11.9192303 2.23737427,12.2668815 2.66622377,12.2668815 L7.86074576,12.2668815 C8.28959526,12.2668815 8.63724647,11.9192303 8.63724647,11.4903808 C8.63724647,11.0615313 8.28959526,10.7138801 7.86074576,10.7138801 L7.86074576,10.7138801 Z" id="形状"></path>
                </g>
            </g>
        </g>
    </g>
</svg>