<?xml version="1.0" encoding="UTF-8"?>
<svg width="24px" height="24px" viewBox="0 0 24 24" version="1.1" xmlns="http://www.w3.org/2000/svg" xmlns:xlink="http://www.w3.org/1999/xlink">
    <title>icon_KSX_list</title>
    <defs>
        <linearGradient x1="4.80696801%" y1="64.3849621%" x2="129.243207%" y2="38.0232439%" id="linearGradient-1">
            <stop stop-color="#FFC859" offset="0%"></stop>
            <stop stop-color="#F02222" offset="100%"></stop>
        </linearGradient>
        <linearGradient x1="24.1200931%" y1="25.7884176%" x2="74.9944768%" y2="89.8619218%" id="linearGradient-2">
            <stop stop-color="#0097FF" offset="5%"></stop>
            <stop stop-color="#B930C0" offset="99%"></stop>
        </linearGradient>
        <linearGradient x1="53.6271297%" y1="112.324035%" x2="41.5208287%" y2="0.15557626%" id="linearGradient-3">
            <stop stop-color="#367DFF" offset="0%"></stop>
            <stop stop-color="#31FFA1" offset="100%"></stop>
        </linearGradient>
    </defs>
    <g id="页面-1" stroke="none" stroke-width="1" fill="none" fill-rule="evenodd">
        <g id="001首页" transform="translate(-937.000000, -114.000000)">
            <g id="icon_KSX_list" transform="translate(937.000000, 114.000000)">
                <circle id="Oval-2" stroke="#EFEFEF" fill="#FAFAFA" cx="12" cy="12" r="11.5"></circle>
                <g id="编组-18" transform="translate(4.000000, 5.000000)" fill-rule="nonzero">
                    <path d="M0.237435629,13.4337251 L4.92447092,13.4337251 C5.00934201,13.4336381 5.08772662,13.3883023 5.13012449,13.31478 C5.17252235,13.2412577 5.17249911,13.1507067 5.1300635,13.0772062 L2.78714005,9.01823838 C2.74469672,8.94464803 2.66620316,8.89930624 2.58125038,8.89930624 C2.49629759,8.89930624 2.41780403,8.94464803 2.3753607,9.01823838 L0.0318430569,13.0772062 C-0.0105925529,13.1507067 -0.0106158,13.2412577 0.0317820646,13.31478 C0.0741799292,13.3883023 0.152564544,13.4336381 0.237435629,13.4337251 Z" id="路径" fill="url(#linearGradient-1)"></path>
                    <path d="M10.7749463,5.47919398 L3.82282749,8.38541731 C3.75972151,8.4116625 3.71096764,8.46380346 3.68901379,8.52852751 C3.66705994,8.59325155 3.67403105,8.66429396 3.70814724,8.72351608 L6.35767695,13.3148855 C6.4000907,13.3883483 6.47844198,13.4336381 6.56326952,13.4337254 L15.1951866,13.4337254 C15.2801638,13.4338505 15.358743,13.3885986 15.4012859,13.3150374 C15.4438287,13.2414762 15.4438621,13.1507987 15.4013733,13.0772062 L11.0726396,5.57961348 C11.0128317,5.47597879 10.885308,5.4329618 10.7749463,5.47919398 Z" id="路径" fill="url(#linearGradient-2)"></path>
                    <path d="M7.51339242,0.118932145 L3.56494547,6.95993587 C3.51415919,7.04816099 3.52519639,7.1589326 3.59239272,7.23540203 C3.65958906,7.31187145 3.76802259,7.33705754 3.86204457,7.29803463 L10.2247187,4.63840355 C10.2877209,4.61204005 10.3363379,4.55984906 10.3581736,4.49513812 C10.3800093,4.43042718 10.3729533,4.35945022 10.3388048,4.30030478 L7.92517176,0.118932145 C7.88272844,0.0453417952 7.80423488,6.82484372e-14 7.71928209,6.82484372e-14 C7.63432931,6.82484372e-14 7.55583575,0.0453417952 7.51339242,0.118932145 Z" id="路径" fill="url(#linearGradient-3)"></path>
                </g>
            </g>
        </g>
    </g>
</svg>