<?xml version="1.0" encoding="UTF-8"?>
<svg width="207px" height="193px" viewBox="0 0 207 193" version="1.1" xmlns="http://www.w3.org/2000/svg" xmlns:xlink="http://www.w3.org/1999/xlink">
    <title>形状结合备份</title>
    <g id="页面-2" stroke="none" stroke-width="1" fill="none" fill-rule="evenodd" opacity="0.107820932">
        <g id="Assets" transform="translate(-525.000000, -173.000000)" fill="#FFFFFF">
            <g id="形状结合备份" transform="translate(26.000000, 76.000000)">
                <path d="M522.660045,254.003026 C524.087647,254.003026 525.412133,254.724961 526.184716,255.910278 L526.302051,256.101247 L567.746303,327.710225 C568.496951,329.006934 568.497362,330.604449 567.747382,331.901542 C567.0349,333.13378 565.74791,333.917231 564.33382,333.993811 L564.109551,333.999991 L481.200027,333.999991 C479.698732,333.998456 478.312178,333.198635 477.562197,331.901542 C476.853881,330.67651 476.814897,329.183508 477.445114,327.929026 L477.563276,327.710225 L519.018038,256.101247 C519.768823,254.802954 521.157305,254.003026 522.660045,254.003026 Z M672.755505,195.257209 L672.865237,195.43646 L749.436723,327.710225 C750.188312,329.008556 750.187722,330.608304 749.435175,331.906083 C748.720257,333.138972 747.430039,333.92112 746.014022,333.99436 L745.789461,333.999995 L593.098454,333.999995 C591.672956,333.998533 590.350848,333.277354 589.578945,332.094044 L589.461703,331.903402 L542.593857,250.901707 C541.990372,249.856901 541.867059,248.603559 542.255403,247.461687 C542.617858,246.39594 543.393279,245.523572 544.402642,245.03554 L544.62245,244.936913 L667.599305,193.664843 C669.486433,192.876395 671.657241,193.559275 672.755505,195.257209 Z M613.547298,97 C614.974901,97 616.299386,97.7219345 617.07197,98.907252 L617.189305,99.0982205 L659.884346,172.866685 C660.488403,173.910139 660.613217,175.162326 660.226963,176.303967 C659.86646,177.369499 659.093277,178.24262 658.085697,178.732452 L657.866265,178.831479 L545.316165,225.753129 C543.652999,226.441578 541.734906,225.99724 540.546262,224.648154 C539.407145,223.35528 539.180374,221.506621 539.954137,219.984894 L540.060744,219.788335 L609.905291,99.0982205 C610.656076,97.7999274 612.044558,97 613.547298,97 Z"></path>
            </g>
        </g>
    </g>
</svg>